<!DOCTYPE svg PUBLIC "-//W3C//DTD SVG 1.1//EN" "http://www.w3.org/Graphics/SVG/1.1/DTD/svg11.dtd">
<!-- Uploaded to: SVG Repo, www.svgrepo.com, Transformed by: SVG Repo Mixer Tools -->
<svg fill="#0D9CD8" version="1.1" id="Capa_1" xmlns="http://www.w3.org/2000/svg" xmlns:xlink="http://www.w3.org/1999/xlink" width="64px" height="64px" viewBox="-12.52 -12.52 150.24 150.24" xml:space="preserve" stroke="#0D9CD8" stroke-width="0.001252">
<g id="SVGRepo_bgCarrier" stroke-width="0"/>
<g id="SVGRepo_tracerCarrier" stroke-linecap="round" stroke-linejoin="round" stroke="#030303" stroke-width="12.52"> <g> <path d="M52.65,125.2h19.9c3.3,0,6-2.7,6-6V86.301h3.399c3.301,0,6-2.701,6-6V43.2c0-3.3-2.699-6-6-6H43.25c-3.3,0-6,2.7-6,6 v37.101c0,3.299,2.7,6,6,6h3.4V119.2C46.65,122.5,49.25,125.2,52.65,125.2z"/> <circle cx="62.55" cy="15.7" r="15.7"/> </g> </g>
<g id="SVGRepo_iconCarrier"> <g> <path d="M52.65,125.2h19.9c3.3,0,6-2.7,6-6V86.301h3.399c3.301,0,6-2.701,6-6V43.2c0-3.3-2.699-6-6-6H43.25c-3.3,0-6,2.7-6,6 v37.101c0,3.299,2.7,6,6,6h3.4V119.2C46.65,122.5,49.25,125.2,52.65,125.2z"/> <circle cx="62.55" cy="15.7" r="15.7"/> </g> </g>
</svg>